HIERARCHY
ROOT Hips
{
	OFFSET -14.64140 90.27770 -84.91600
	CHANNELS 6 Xposition Yposition Zposition Zrotation Xrotation Yrotation
	JOINT Spine
	{
		OFFSET 0.00000 13.20850 -1.60436
		CHANNELS 3 Zrotation Xrotation Yrotation
		JOINT Spine1
		{
			OFFSET 0.00000 8.61716 0.00000
			CHANNELS 3 Zrotation Xrotation Yrotation
			JOINT Spine2
			{
				OFFSET 0.00000 8.61717 0.00000
				CHANNELS 3 Zrotation Xrotation Yrotation
				JOINT Spine3
				{
					OFFSET 0.00000 8.61717 0.00000
					CHANNELS 3 Zrotation Xrotation Yrotation
					JOINT Neck
					{
						OFFSET 0.00000 11.07920 1.10792
						CHANNELS 3 Zrotation Xrotation Yrotation
						JOINT Neck1
						{
							OFFSET 0.00000 7.08032 0.00000
							CHANNELS 3 Zrotation Xrotation Yrotation
							JOINT Head
							{
								OFFSET 0.00000 7.08031 0.00000
								CHANNELS 3 Zrotation Xrotation Yrotation
								End site
								{
									OFFSET 0.00000 0.00000 0.00000
								}
							}
						}
					}
					JOINT RightShoulder
					{
						OFFSET -0.01000 7.91373 5.19711
						CHANNELS 3 Zrotation Xrotation Yrotation
						JOINT RightArm
						{
							OFFSET -18.41580 0.00000 0.00000
							CHANNELS 3 Zrotation Xrotation Yrotation
							JOINT RightForeArm
							{
								OFFSET -29.11090 0.00000 0.00000
								CHANNELS 3 Zrotation Xrotation Yrotation
								JOINT RightHand
								{
									OFFSET -24.65040 0.00000 0.00000
									CHANNELS 3 Zrotation Xrotation Yrotation
									JOINT RightHandThumb1
									{
										OFFSET -5.35114 -0.85590 3.97906
										CHANNELS 3 Zrotation Xrotation Yrotation
										JOINT RightHandThumb2
										{
											OFFSET -4.52789 0.00000 0.00000
											CHANNELS 3 Zrotation Xrotation Yrotation
											JOINT RightHandThumb3
											{
												OFFSET -2.46976 0.00000 0.00000
												CHANNELS 3 Zrotation Xrotation Yrotation
												End site
												{
													OFFSET 0.00000 0.00000 0.00000
												}
											}
										}
									}
									JOINT RightHandIndex1
									{
										OFFSET -14.26970 0.00000 2.88139
										CHANNELS 3 Zrotation Xrotation Yrotation
										JOINT RightHandIndex2
										{
											OFFSET -5.48836 0.00000 0.00000
											CHANNELS 3 Zrotation Xrotation Yrotation
											JOINT RightHandIndex3
											{
												OFFSET -3.01859 0.00000 0.00000
												CHANNELS 3 Zrotation Xrotation Yrotation
												End site
												{
													OFFSET 0.00000 0.00000 0.00000
												}
											}
										}
									}
									JOINT RightHandMiddle1
									{
										OFFSET -14.26970 0.00000 -0.09147
										CHANNELS 3 Zrotation Xrotation Yrotation
										JOINT RightHandMiddle2
										{
											OFFSET -6.17441 0.00000 0.00000
											CHANNELS 3 Zrotation Xrotation Yrotation
											JOINT RightHandMiddle3
											{
												OFFSET -3.56743 0.00000 0.00000
												CHANNELS 3 Zrotation Xrotation Yrotation
												End site
												{
													OFFSET 0.00000 0.00000 0.00000
												}
											}
										}
									}
									JOINT RightHandRing1
									{
										OFFSET -12.69180 0.00000 -3.06433
										CHANNELS 3 Zrotation Xrotation Yrotation
										JOINT RightHandRing2
										{
											OFFSET -5.62556 0.00000 0.00000
											CHANNELS 3 Zrotation Xrotation Yrotation
											JOINT RightHandRing3
											{
												OFFSET -3.56744 0.00000 0.00000
												CHANNELS 3 Zrotation Xrotation Yrotation
												End site
												{
													OFFSET 0.00000 0.00000 0.00000
												}
											}
										}
									}
									JOINT RightHandPinky1
									{
										OFFSET -11.11390 0.00000 -6.03719
										CHANNELS 3 Zrotation Xrotation Yrotation
										JOINT RightHandPinky2
										{
											OFFSET -4.52789 0.00000 0.00000
											CHANNELS 3 Zrotation Xrotation Yrotation
											JOINT RightHandPinky3
											{
												OFFSET -2.46976 0.00000 0.00000
												CHANNELS 3 Zrotation Xrotation Yrotation
												End site
												{
													OFFSET 0.00000 0.00000 0.00000
												}
											}
										}
									}
								}
							}
						}
					}
					JOINT LeftShoulder
					{
						OFFSET 0.01000 7.91373 5.19711
						CHANNELS 3 Zrotation Xrotation Yrotation
						JOINT LeftArm
						{
							OFFSET 18.41580 0.00000 0.00000
							CHANNELS 3 Zrotation Xrotation Yrotation
							JOINT LeftForeArm
							{
								OFFSET 29.11090 0.00000 0.00000
								CHANNELS 3 Zrotation Xrotation Yrotation
								JOINT LeftHand
								{
									OFFSET 24.65040 0.00000 0.00000
									CHANNELS 3 Zrotation Xrotation Yrotation
									JOINT LeftHandThumb1
									{
										OFFSET 5.35114 -0.85590 3.97906
										CHANNELS 3 Zrotation Xrotation Yrotation
										JOINT LeftHandThumb2
										{
											OFFSET 4.52789 0.00000 0.00000
											CHANNELS 3 Zrotation Xrotation Yrotation
											JOINT LeftHandThumb3
											{
												OFFSET 2.46977 0.00000 0.00000
												CHANNELS 3 Zrotation Xrotation Yrotation
												End site
												{
													OFFSET 0.00000 0.00000 0.00000
												}
											}
										}
									}
									JOINT LeftHandIndex1
									{
										OFFSET 14.26970 0.00000 2.88139
										CHANNELS 3 Zrotation Xrotation Yrotation
										JOINT LeftHandIndex2
										{
											OFFSET 5.48836 0.00000 0.00000
											CHANNELS 3 Zrotation Xrotation Yrotation
											JOINT LeftHandIndex3
											{
												OFFSET 3.01859 0.00000 0.00000
												CHANNELS 3 Zrotation Xrotation Yrotation
												End site
												{
													OFFSET 0.00000 0.00000 0.00000
												}
											}
										}
									}
									JOINT LeftHandMiddle1
									{
										OFFSET 14.26970 0.00000 -0.09147
										CHANNELS 3 Zrotation Xrotation Yrotation
										JOINT LeftHandMiddle2
										{
											OFFSET 6.17440 0.00000 0.00000
											CHANNELS 3 Zrotation Xrotation Yrotation
											JOINT LeftHandMiddle3
											{
												OFFSET 3.56744 0.00000 0.00000
												CHANNELS 3 Zrotation Xrotation Yrotation
												End site
												{
													OFFSET 0.00000 0.00000 0.00000
												}
											}
										}
									}
									JOINT LeftHandRing1
									{
										OFFSET 12.69180 0.00000 -3.06433
										CHANNELS 3 Zrotation Xrotation Yrotation
										JOINT LeftHandRing2
										{
											OFFSET 5.62556 0.00000 0.00000
											CHANNELS 3 Zrotation Xrotation Yrotation
											JOINT LeftHandRing3
											{
												OFFSET 3.56744 0.00000 0.00000
												CHANNELS 3 Zrotation Xrotation Yrotation
												End site
												{
													OFFSET 0.00000 0.00000 0.00000
												}
											}
										}
									}
									JOINT LeftHandPinky1
									{
										OFFSET 11.11390 0.00000 -6.03719
										CHANNELS 3 Zrotation Xrotation Yrotation
										JOINT LeftHandPinky2
										{
											OFFSET 4.52789 0.00000 0.00000
											CHANNELS 3 Zrotation Xrotation Yrotation
											JOINT LeftHandPinky3
											{
												OFFSET 2.46976 0.00000 0.00000
												CHANNELS 3 Zrotation Xrotation Yrotation
												End site
												{
													OFFSET 0.00000 0.00000 0.00000
												}
											}
										}
									}
								}
							}
						}
					}
					JOINT pCube4
					{
						OFFSET 0.00000 10.91090 1.10792
						CHANNELS 3 Zrotation Xrotation Yrotation
						End site
						{
							OFFSET 0.00000 0.00000 0.00000
						}
					}
				}
			}
		}
	}
	JOINT RightUpLeg
	{
		OFFSET -9.98441 0.00000 0.00000
		CHANNELS 3 Zrotation Xrotation Yrotation
		JOINT RightLeg
		{
			OFFSET 0.00000 -42.11790 0.00000
			CHANNELS 3 Zrotation Xrotation Yrotation
			JOINT RightFoot
			{
				OFFSET 0.00000 -45.00020 -0.00001
				CHANNELS 3 Zrotation Xrotation Yrotation
				JOINT RightForeFoot
				{
					OFFSET 0.00000 -3.74820 0.00000
					CHANNELS 3 Zrotation Xrotation Yrotation
					JOINT RightToeBase
					{
						OFFSET 0.00000 0.06325 14.43120
						CHANNELS 3 Zrotation Xrotation Yrotation
						End site
						{
							OFFSET 0.00000 0.00000 0.00000
						}
					}
				}
			}
		}
	}
	JOINT LeftUpLeg
	{
		OFFSET 9.98441 0.00000 0.00000
		CHANNELS 3 Zrotation Xrotation Yrotation
		JOINT LeftLeg
		{
			OFFSET 0.00000 -42.11800 0.00000
			CHANNELS 3 Zrotation Xrotation Yrotation
			JOINT LeftFoot
			{
				OFFSET 0.00000 -45.00070 0.00000
				CHANNELS 3 Zrotation Xrotation Yrotation
				JOINT LeftForeFoot
				{
					OFFSET 0.00000 -3.74824 0.00000
					CHANNELS 3 Zrotation Xrotation Yrotation
					JOINT LeftToeBase
					{
						OFFSET 0.00000 0.06325 14.43110
						CHANNELS 3 Zrotation Xrotation Yrotation
						End site
						{
							OFFSET 0.00000 0.00000 0.00000
						}
					}
				}
			}
		}
	}
}
MOTION
Frames: 4
Frame Time: 0.050000
0.004885666260669203 -0.004519291779515266 0.016971830276939378 0.0193849169285907 -0.03534220825869868 -0.022672333233195542 -2.3803694962264563 1.7795875019667233 -0.72827493596869 -0.9398158291109197 3.6604097851495276 0.4056047067294141 -1.1509274381781507 -1.621010837608026 -0.03406739160814452 -0.38611799534956204 -0.03409886236809178 -0.6809734845214387 -0.22722208191771567 12.776707038697555 0.2224644511178111 -0.2090342688216991 0.15034011191858793 -2.2161897157948895 -0.17443109276045562 -14.503169789906563 -0.11541700108099909 -5.6469211713837 2.16310589825265 -13.129435714482428 61.84280760736234 0.3532943451686622 26.168972645837005 0.46372390024026766 -2.996728104560121 99.30109649439743 9.816583305013488 -0.2991997553347566 -0.5993688418182743 4.499431647446355 -0.16073042230104667 -1.5847545593522363 0.022201120432662758 0.029725404997574336 -56.2115545256854 -0.014865954535511138 -0.04645684021906375 -56.268145905579594 -38.73655638525663 0.03407963752461219 -0.022505520321160145 -0.03305059773839792 0.03604825991828461 0.013827093417501189 0.01285066532219324 0.01803212193814087 0.023116558484522376 -36.69191748275547 -0.04726584958359626 -0.012349505747208044 -0.037585749967437965 0.008436517387018666 0.009568623081382698 -0.008254857395764328 0.013976544739380328 0.03100683189183398 -19.74686956757968 -0.016858006548963862 0.039524277430905475 -0.024255019295830533 -0.004340610951901592 0.009181121218089474 0.023458241752126494 -0.031035755697625844 -0.03309151005116069 24.059722997116317 0.011097478239769944 -0.004261548897427319 28.859386705036744 0.00665125405925844 0.012789527639310672 28.878751989504018 -0.02006788144811566 0.008264463178472816 6.27441022098845 1.5402112993561905 12.537004648684759 -63.777912140699605 13.626937729906249 -19.47083634878873 -3.6510939347740186 -7.854559130762993 -85.62031002035836 -3.480530636293707 1.6444442267523016 -2.9967284068362616 -0.44695944494180123 0.11075856741310036 -8.106681431464459 -0.045511570973456976 -0.021951434996322513 44.55541030519141 -0.00503338093986897 -0.021709489808770407 44.61122411507661 12.427919761655184 -0.025100507838450203 0.020667311006033785 -0.011669835671852105 0.017234915805854473 0.029024133945918632 -0.011591093409118772 -0.01733862037012009 0.0009435770815137622 11.063615497954716 0.021385630682813867 -0.02704082239698898 -0.01758305373973028 0.0055864708403421184 -0.0159616497661226 -0.04860861607292268 -0.01365199763859758 -0.043829098921682644 4.77601920407698 -0.01988467789991994 0.04833258171323747 -0.041824173368679884 -0.02693606852198251 -0.013431882396323326 -0.01929049196889578 -0.000875147953109405 0.01730907890746298 -5.578235681036008 -0.007753016014616403 0.02311968479017005 -6.734633018944386 -0.040231310652850134 0.03538708883229161 -6.690855855520032 0.03856640096493108 -0.01934886924341068 -0.02520821098343831 0.040115698069038405 -0.01828186259664523 8.047430033196251 3.4818259444542456 -19.2019854865167 0.02864886423139832 10.399195600483969 0.03147543218583708 -5.668564084685952 -15.702632490140012 3.231848085919658 -0.015221977572165913 -0.025252300305273312 -0.01635906472500331 0.0439766649760366 4.730857179531236 -0.018792381259003826 12.41758867139701 -8.254824328530269 6.8474223432114 0.034632223011176536 46.41937612341526 0.004897010162222658 -4.3054615259467335 -14.775216948019676 -3.8135304373875605 0.028956318188631088 0.014642799278804446 0.049168928436715435 -0.011970497218184715 -10.703986508910953 -0.02551455489884831 
-0.033639276240397385 0.04585697678033569 0.006677516903751436 0.03933741182297848 0.04059660994612544 -0.009783422075982168 -2.583757750286203 2.3198409308271315 -0.7839195044860773 -0.995695019099355 3.65594992866724 0.3768186273431578 -1.1215598939146951 -1.42930196031412 -0.13517244065414424 -0.4130308500166654 0.08044456914805259 -0.7547594276868029 -0.2862030422619164 12.440333310368475 0.24907876430863132 -0.24902083961687477 0.04177144314605027 -2.170504698297962 -0.19680049285974216 -14.617626766818958 -0.10762341634364342 -4.947514786045264 1.9834815891106488 -12.90989888250483 61.93362821978122 0.7469006756141187 25.638271161154222 1.2425339490897858 -2.1108987100057006 97.34510911484838 10.543476159016313 -0.3725567812517114 -1.0580848242998915 4.569173912328794 -0.10039217627513498 -1.6370100676998738 0.03021158036292381 0.010229090618969122 -56.20634136435598 0.04832638604461627 -0.02948760110200755 -56.2345506981461 -38.78555670450702 0.026304516046525624 -0.047467011497644256 -0.03623100876500858 0.028448232908607454 -0.012490064261745986 -0.04728271441909998 -0.017777611799270763 -0.024360901949734493 -36.67447951933567 -0.003980285787906218 0.03120939520227933 0.023118483636969712 0.019786459032492903 0.04460054917418199 -0.0037024627337153325 0.003647080500381513 -0.037200680229382874 -19.808248165140338 0.048668558192636296 0.020383675064901113 -0.011713838028112782 -0.0028860781874179933 0.01304302257150128 -0.03175686864818773 0.01900345870156062 0.01561191253356497 24.03315173709502 0.01771973255168472 0.0076585378951507885 28.84522549180835 0.0017641932072410549 0.015028797344298548 28.883599143652937 0.020103188308826736 -0.03166248283373214 5.798652071458434 1.417792364203658 12.269805571662838 -62.91425874218917 13.43775935973379 -20.769347325722226 -3.8701679332329344 -6.728345507042084 -86.67411627867557 -4.069424983430714 1.4830893907903686 -3.044053013630629 -0.443792744666097 0.06066884998227551 -8.143975355117524 -0.002670160280065573 -0.0021861849314887636 44.6007102695167 0.0013936234759461814 0.03269146133622857 44.594512414462315 12.452657152500455 0.008762453915745864 0.0038392923760526584 -0.017698530776529525 0.04872648537080526 -0.0031875749230458315 -0.03151081189765067 0.02661235574872097 0.022548613192381987 11.086508397165737 0.039859498181298615 -0.013523394072356821 0.003635733194710617 -0.03574783725009737 -0.047929476080774594 -0.049366983949327335 0.014453015741063191 -0.04195969016295323 4.781011434181894 -0.02900037697507214 -0.014507238717268068 -0.03482919609515174 -0.011149958657010283 0.03458400864993944 0.0104191194869055 -0.033399756748283674 -0.018364663342544146 -5.598493184223078 0.033358739815931994 -0.0045137295072257624 -6.696919096589449 -0.008241616550244106 0.02511050640907479 -6.734109408192425 -0.01989189578076824 -0.046352475866879614 -0.04054179220218038 0.0072336069125515405 -0.010087520283295391 8.077604889444698 3.4729527737057726 -19.25520911344447 0.01895618341936641 10.38605216773325 0.002885803679348816 -5.628434516648475 -15.664413042815617 3.1537622082795616 -0.04238921307976206 -0.02700807273632842 0.021330205655319963 -0.020850148683301224 4.679565113814337 -0.03662973290040554 12.48228857627385 -8.213613940505581 6.8685161956881515 -0.004913256475879933 46.34612303760158 0.0005059630305276953 -4.345652600337219 -14.760814958193995 -3.860861864964787 -0.04280073102066536 0.034367123258159916 0.010907776814964961 -0.045196837106143854 -10.70636321911692 -0.03457179372208306 
0.0001903769998881036 -0.0014117278187916393 0.028792223173517595 0.006146595984048441 -0.04742994221784516 0.02582714290424165 -2.815643078522414 2.9289540094540354 -0.7394524743847101 -0.9302038966009176 3.633217179000649 0.43216512701072424 -1.13728455831967 -1.273595340832957 -0.21416440259728922 -0.31418257131854876 0.11217504137772238 -0.7726129286848106 -0.3458457390956123 12.119382269957025 0.2792731740529778 -0.27776053673133916 -0.1366019740536067 -2.253485800760031 -0.291305292997927 -14.779126542626175 -0.17249353755515634 -4.1267125514563014 1.7320350800705986 -12.644259780074304 62.028255704854324 2.0020617817260695 24.858585036735967 1.6747893673804237 -1.1533706985475924 94.82419429209935 11.527218673649541 -0.420264402832562 -1.7270267310531455 4.5714921546130345 -0.0905317368400996 -1.5923137409823378 0.04973580478005837 -0.0052331531684109795 -56.21478296397525 -0.044456443427569485 -0.0014084320738553305 -56.23485199365547 -38.77964208018555 0.009270574313539993 0.02177857115566945 -0.038533470663460884 -0.027966964430813007 -0.03335530426027643 0.010487593871336062 0.048070713609762616 -0.024666026048546612 -36.70871439465474 0.04624887256227583 0.014900664769938909 -0.035077257247609864 -0.040210745382464566 -0.020778267263265027 -0.024361778559553175 0.04718962104499571 -0.0014366818282441273 -19.80333199115864 0.015214271157736551 -0.023053582275733363 0.031400203221102686 0.03811275722783732 -0.0411045932874476 -0.017359295928930304 -0.031121658739677205 0.027456168671470955 24.03058866509999 -0.04686516174043612 -0.013762571084421537 28.856849727757364 -0.025577326215972255 -0.018721050122284963 28.826332296325663 0.03724005799389457 0.012991986618051263 5.057357803155562 1.3371512032639035 12.138080119328817 -62.05873880918352 14.125686096891629 -21.406991300404012 -3.409707886934789 -6.0552079341473855 -86.6596797031894 -4.7938998833926485 1.5264657213264157 -2.7752932481827455 -0.44063966004239585 0.07528134710028311 -8.134287177039578 -0.019328888633769057 -0.03305327543183609 44.60908747738586 0.0048657686438423435 -0.03095514565027613 44.57972213175994 12.50351986777305 0.039407869762844494 -0.019820774685386445 0.00800812569485717 -0.0019999948765342555 -0.02382154377215646 0.023834940289824958 -0.020264458794041536 -0.00019674666033849268 11.129397291734257 0.024217265063744706 -0.030198121068659 0.03206777591065741 0.024463823821763073 0.01692008066575269 0.02754905616013481 0.021038450577638652 -0.035154182746583454 4.76359905957591 0.007183788667998227 -0.04408204405364978 -0.03476388978645187 0.0056287396528400865 -0.014367719291710506 0.03769828402939286 -0.04572527075866638 0.017944223475772434 -5.6129844345588715 -0.0021048305630408377 -0.0453328430061927 -6.733850142614097 0.028994470168599924 0.0075073138591495135 -6.7430634745550995 0.0006527623654518762 -0.016047713262151365 0.04932270205032177 -0.020922781507515375 0.0038267787069873843 8.042250388709979 3.4980675293373107 -19.24613727804179 -0.0019378605559104733 10.363865732764001 -0.02799490614666981 -5.644480271603161 -15.697328430282376 3.1621270028568746 -0.0017369892913479427 -0.04698351653694916 0.04485151810309695 -0.01404449295234917 4.687149933951714 -0.0010608825371176184 12.487772448482824 -8.243785514933448 6.9071457611878495 0.006166586005956409 46.357819686274006 0.01833420632346321 -4.328401645724816 -14.712092598177161 -3.7933020258591204 0.02543456404254162 0.012552290694158662 0.009571445172180948 0.007745166357531223 -10.789614408032168 -0.010436196426121801 
0.006752828959333242 -0.00854878408631929 -0.03924153301950245 0.029650176481032478 -0.028206499555981097 0.04521376758341216 -3.254486131897489 3.743386760113827 -0.6648659394370701 -0.9433724979984309 3.6957679589802406 0.4439143394969801 -1.1127870190705147 -0.9946665964621868 -0.2978345424551827 -0.2677051077919517 0.27359577540666047 -0.7429186056169497 -0.37115119174804095 11.632458299363568 0.28196948086764745 -0.367575690696163 -0.32516120934417114 -2.655527339165564 -0.3176530931764417 -14.944356964884022 -0.1177058070696572 -2.9776962303971084 1.4330068172923502 -12.32942297263557 61.786565533172556 3.357786394571706 24.56375045096668 1.8048148409261628 -0.15645169130203287 92.33220331131399 12.635067145790089 -0.423472475771749 -2.544805150887858 4.512514439821596 -0.11262897876142051 -1.5528076675866116 0.014711583468482713 0.04079823147920765 -56.24873560995131 0.016432492405902645 -0.038997937993084555 -56.26244977970967 -38.75280403632562 -0.03126764939549865 0.0030118331084100862 0.046757398264409986 0.009431169275585398 0.00184673696502367 0.007870748751733726 -0.04445552147162797 -0.04360376129678518 -36.698815805352346 0.016205333752647058 0.021009730460179885 -0.04709858414998683 -0.003584237301244326 0.021572326858626985 0.0023599039751264327 -0.04463816730300907 -0.027304947951564032 -19.74830929737783 -0.006191622975204617 -0.031717768607640466 -0.025708221231261055 -0.0064479065912519265 0.01331205016006221 0.03361539485472182 -0.022718807021208366 0.044874153486931766 24.086040783010922 0.025995237106479437 0.03673474711463763 28.878040450113332 0.044580660900400464 -0.0043895202461655385 28.882955834288023 0.013472527056255094 0.043564168485621696 3.953188254779356 1.1613241143338755 11.855027223921267 -60.97886580219331 15.091542577935257 -21.846176509560323 -2.4670857774536716 -5.583718479777224 -85.68409465170774 -5.731668902048697 1.4482888617679397 -2.5296515702453615 -0.4800826561168825 0.06999345828299111 -8.136514488251876 0.008628877348226401 0.045050905076329056 44.57574503761423 -0.01584704298143436 0.0420249497602822 44.53802551215347 12.46122188313052 0.03986417122641932 -0.03751338611499366 -0.0035702661709622963 0.012440045763918814 -0.012335979516610345 0.035701877884754644 -0.04674044648148766 0.046005291400279875 11.085195967287822 -0.02353369458898335 0.013534661922561843 0.010663617777102043 0.045898174950389455 0.017135729903806306 -0.0025308646911480024 0.03889028184678734 -0.005129798047050704 4.790136857841924 -0.014285459819485456 0.027730727165699843 -0.006646610776166358 0.005308252601127956 0.0030443472045077625 -0.01845307223957013 0.0008326886438163909 0.03109517537711197 -5.60370552474961 -0.01193737456236859 -0.022198878959238954 -6.740393585135307 -0.004486443133572715 -0.03406905491618661 -6.691630457648551 -0.006712176647476797 -0.00043219059446785764 -0.00861051703583665 0.003925889103345746 0.0042017957306025346 8.02048361024632 3.483799153560386 -19.238629229193727 -0.005054992898592808 10.443349175384649 0.022653870738769517 -5.665386019363173 -15.66608413129831 3.2375420726552373 0.012254584348418252 0.02877846786476661 0.04268234149864177 -0.031866591546411825 4.669313039010057 -0.03674249577116578 12.425714799872756 -8.277750783772452 6.849409872754204 -0.010972596290788231 46.40204975898885 0.02603293233944497 -4.344264179535735 -14.7142760576913 -3.85522698057143 0.039022867295319855 -0.0022947132277218005 0.000434658555504024 0.015328965908405106 -10.77798941869578 0.0032053731086110694 
